<svg width="93" height="47" viewBox="0 0 93 47" fill="none" xmlns="http://www.w3.org/2000/svg">
<path d="M0.107955 47V0.454544H18.7443C22.1686 0.454544 25.0246 0.96212 27.3125 1.97727C29.6004 2.99242 31.3201 4.40151 32.4716 6.20454C33.6231 7.99242 34.1989 10.053 34.1989 12.3864C34.1989 14.2045 33.8352 15.803 33.108 17.1818C32.3807 18.5455 31.3807 19.6667 30.108 20.5455C28.8504 21.4091 27.411 22.0227 25.7898 22.3864V22.8409C27.5625 22.9167 29.2216 23.4167 30.767 24.3409C32.3277 25.2652 33.5928 26.5606 34.5625 28.2273C35.5322 29.8788 36.017 31.8485 36.017 34.1364C36.017 36.6061 35.4034 38.8106 34.1761 40.75C32.964 42.6742 31.1686 44.197 28.7898 45.3182C26.411 46.4394 23.4792 47 19.9943 47H0.107955ZM9.94886 38.9545H17.9716C20.714 38.9545 22.714 38.4318 23.9716 37.3864C25.2292 36.3258 25.858 34.9167 25.858 33.1591C25.858 31.8712 25.5473 30.7348 24.9261 29.75C24.3049 28.7652 23.4186 27.9924 22.267 27.4318C21.1307 26.8712 19.7746 26.5909 18.1989 26.5909H9.94886V38.9545ZM9.94886 19.9318H17.2443C18.5928 19.9318 19.7898 19.697 20.8352 19.2273C21.8958 18.7424 22.7292 18.0606 23.3352 17.1818C23.9564 16.303 24.267 15.25 24.267 14.0227C24.267 12.3409 23.6686 10.9848 22.4716 9.95454C21.2898 8.92424 19.608 8.40909 17.4261 8.40909H9.94886V19.9318ZM42.4205 0.454544H54.5568L67.375 31.7273H67.9205L80.7386 0.454544H92.875V47H83.3295V16.7045H82.9432L70.8977 46.7727H64.3977L52.3523 16.5909H51.9659V47H42.4205V0.454544Z" fill="url(#paint0_linear_2_2)" style="mix-blend-mode:difference"/>
<defs>
<linearGradient id="paint0_linear_2_2" x1="-82" y1="29" x2="329" y2="34" gradientUnits="userSpaceOnUse">
<stop offset="0.135417" stop-color="#51949D" stop-opacity="0.588542"/>
<stop offset="0.276042" stop-color="#3C8F9F"/>
<stop offset="0.40625" stop-color="#23666F" stop-opacity="0.473141"/>
</linearGradient>
</defs>
</svg>
