<svg width="579" height="467" viewBox="0 0 579 467" fill="none" xmlns="http://www.w3.org/2000/svg">
<circle cx="231" cy="64" r="50" fill="#26A411"/>
<circle cx="320" cy="50" r="50" fill="#3BD4F5"/>
<circle cx="400" cy="86" r="50" fill="#3014E0"/>
<circle cx="486" cy="64" r="50" fill="#9D17B3"/>
<path d="M530.871 270.243L578.39 101.604C581.821 89.4281 570.346 77.8333 554.865 77.8333H160.037L150.823 41.503C148.528 32.4476 138.648 25.9445 127.188 25.9445H24.125C10.801 25.9445 0 34.6561 0 45.4028V58.375C0 69.1217 10.801 77.8333 24.125 77.8333H94.372L164.986 356.278C148.092 364.114 136.708 378.807 136.708 395.653C136.708 420.728 161.911 441.056 193 441.056C224.089 441.056 249.292 420.728 249.292 395.653C249.292 382.945 242.811 371.464 232.38 363.222H443.119C432.689 371.464 426.208 382.945 426.208 395.653C426.208 420.728 451.411 441.056 482.5 441.056C513.589 441.056 538.792 420.728 538.792 395.653C538.792 377.677 525.837 362.142 507.048 354.786L512.594 335.104C516.025 322.928 504.55 311.333 489.069 311.333H219.253L212.674 285.389H507.346C518.61 285.389 528.375 279.102 530.871 270.243Z" fill="black"/>
</svg>
